<svg width="63" height="63" viewBox="0 0 63 63" fill="none" xmlns="http://www.w3.org/2000/svg">
<path opacity="0.2" d="M18.186 27.415C17.8908 33.0998 19.2943 39.7196 23.6255 47.25L16.2427 53.1562C15.9818 53.3647 15.6715 53.5037 15.3423 53.5596C15.0133 53.6153 14.6756 53.5862 14.3608 53.4756C14.0458 53.3648 13.7633 53.1754 13.5415 52.9258C13.3198 52.6763 13.1653 52.3745 13.0923 52.0488L10.0649 38.3418C9.992 38.0518 9.98968 37.7481 10.0581 37.457C10.1266 37.1659 10.2648 36.8951 10.4595 36.668L18.186 27.415ZM52.3931 36.5205C52.5877 36.7476 52.7259 37.0184 52.7944 37.3096C52.8628 37.6004 52.8604 37.9036 52.7876 38.1934L49.7603 51.877C49.6905 52.2047 49.5382 52.5093 49.3179 52.7617C49.0974 53.0142 48.8159 53.206 48.5005 53.3193C48.185 53.4327 47.8459 53.4636 47.5151 53.4092C47.1844 53.3548 46.8724 53.2173 46.6099 53.0088L39.2271 47.1025C43.5583 39.5475 44.9618 32.927 44.6665 27.2422L52.3931 36.5205Z" fill="#33C8DA"/>
<path d="M35.4375 54.1249C35.9897 54.1249 36.4374 54.5726 36.4375 55.1249C36.4375 55.6772 35.9898 56.1249 35.4375 56.1249H27.5625C27.0103 56.1248 26.5625 55.6771 26.5625 55.1249C26.5626 54.5727 27.0103 54.1249 27.5625 54.1249H35.4375ZM31.5 3.42664C32.1798 3.42667 32.8379 3.66421 33.3613 4.09753C35.7394 6.03288 40.8962 10.8414 43.7412 18.2362C44.7307 20.8083 45.4345 23.6809 45.6514 26.8378L53.3096 36.0272H53.3086C53.6027 36.3736 53.8109 36.785 53.915 37.2274C54.0179 37.6644 54.015 38.1193 53.9102 38.5555L53.9111 38.5565L50.8848 52.2645L50.8838 52.2675C50.7737 52.7585 50.5403 53.2135 50.2061 53.5897C49.8716 53.966 49.4466 54.2518 48.9717 54.4188C48.4967 54.5858 47.9867 54.629 47.4902 54.5448C46.994 54.4606 46.5271 54.2515 46.1338 53.9374L46.1328 53.9364L39.0244 48.2499H23.9766L16.8672 53.9374H16.8662C16.4729 54.2516 16.0061 54.4606 15.5098 54.5448C15.0134 54.629 14.5033 54.5858 14.0283 54.4188C13.5535 54.2518 13.1284 53.9669 12.7939 53.5907C12.4595 53.2144 12.2263 52.7587 12.1162 52.2675V52.2645L9.08887 38.5575L9.08984 38.5565C8.98479 38.12 8.98208 37.6647 9.08496 37.2274C9.18918 36.7847 9.39799 36.3737 9.69238 36.0272H9.69141L17.2061 27.0282C17.403 23.7922 18.1192 20.8517 19.1396 18.2245C22.0139 10.8246 27.2406 6.01486 29.6445 4.09167V4.09265C30.167 3.6625 30.8228 3.42667 31.5 3.42664ZM11.2266 37.3094L11.2188 37.3192C11.1283 37.4248 11.0641 37.5502 11.0322 37.6854C11.0084 37.7869 11.0025 37.8921 11.0156 37.995L11.0352 38.0975L11.042 38.1259L14.0674 51.83C14.1033 51.9902 14.18 52.1389 14.2891 52.2616C14.3982 52.3844 14.5374 52.4776 14.6924 52.5321C14.8473 52.5865 15.0139 52.6006 15.1758 52.5731C15.3376 52.5456 15.4899 52.4773 15.6182 52.3749L22.335 47.0009C18.8941 40.8085 17.4064 35.182 17.1816 30.1766L11.2266 37.3094ZM45.6982 30.0184C45.5123 35.0602 44.0666 40.7371 40.6582 46.995L47.3828 52.3749H47.3818C47.5102 52.4774 47.6633 52.5456 47.8252 52.5731C47.9869 52.6005 48.1529 52.5864 48.3076 52.5321C48.4626 52.4776 48.6018 52.3844 48.7109 52.2616C48.7928 52.1694 48.8558 52.0624 48.8975 51.9471L48.9316 51.83L51.958 38.1259L51.9648 38.0975C51.9987 37.9626 51.9996 37.8208 51.9678 37.6854C51.9359 37.5502 51.8727 37.4238 51.7822 37.3182L51.7725 37.3075L45.6982 30.0184ZM31.5 5.42664C31.2846 5.42667 31.0755 5.50242 30.9102 5.6405C30.9049 5.64489 30.8999 5.6499 30.8945 5.65417C28.6226 7.47179 23.6974 12.0136 21.0039 18.9481C18.37 25.7295 17.8295 34.9014 24.21 46.2499H38.7842C42.7413 39.0659 43.9702 32.7554 43.6787 27.371C43.6691 27.3087 43.6648 27.2461 43.667 27.1835C43.4815 24.1388 42.8128 21.3926 41.875 18.955C39.2076 12.0214 34.3482 7.47831 32.0996 5.64832L32.0889 5.6405C31.9236 5.50253 31.7153 5.42667 31.5 5.42664ZM31.5 20.6718C33.1309 20.6718 34.4531 21.994 34.4531 23.6249C34.4531 25.2558 33.131 26.578 31.5 26.578C29.8691 26.5779 28.5469 25.2558 28.5469 23.6249C28.5469 21.994 29.8691 20.6718 31.5 20.6718Z" fill="#33C8DA"/>
</svg>
