<svg xmlns="http://www.w3.org/2000/svg" xmlns:xlink="http://www.w3.org/1999/xlink" viewBox="0 0 70.26 70.26"><defs><style>.cls-1{fill:url(#linear-gradient);}</style><linearGradient id="linear-gradient" x1="0.03" y1="-6.95" x2="74.24" y2="96.65" gradientTransform="matrix(1, 0, 0, -1, 0, 76.26)" gradientUnits="userSpaceOnUse"><stop offset="0" stop-color="#00bad1"/><stop offset="1" stop-color="#c2f8ff"/></linearGradient></defs><g id="Layer_2" data-name="Layer 2"><g id="Layer_1-2" data-name="Layer 1"><path class="cls-1" d="M45.54,70.26H0c2.1-15.3,11.5-16,13-16h31.4c1.63,0,4.11-1.74,4.11-5.28s-3-5.37-4.11-5.37H24.79C20.13,43.6,4.9,39.27,4.9,22.08S20.59,0,23.31,0H56.42c.68,0,4.39.06,13.84,0C66.52,15.69,59.69,16,58.68,16H24.79c-1.79,0-4.58,2.52-4.58,5.59s3.1,5.45,4.58,5.45H44.38c2.64,0,19.74,4,19.74,21.29S47.56,70.26,45.54,70.26Z"/></g></g></svg>