<svg width="143" height="44" viewBox="0 0 143 44" fill="none" xmlns="http://www.w3.org/2000/svg">
<g filter="url(#filter0_d_674_12114)">
<path d="M125.243 36H6C6.95575 29.0325 11.8272 28.7093 12.4998 28.7093H124.712C125.456 28.7093 126.588 27.9192 126.588 26.303C126.588 24.6869 125.243 23.8608 124.712 23.8608H115.792C113.668 23.8608 106.73 21.8855 106.73 14.0561C106.73 6.22671 113.881 4 115.119 4H130.199C130.506 4.01197 132.196 4.02873 136.5 4C134.801 11.147 131.686 11.2907 131.226 11.2907H115.792C114.978 11.2907 113.704 12.44 113.704 13.8406C113.704 15.2413 115.119 16.3187 115.792 16.3187H124.712C125.916 16.3187 133.704 18.1504 133.704 26.0157C133.704 33.881 126.164 36 125.243 36Z" fill="url(#paint0_linear_674_12114)"/>
</g>
<g filter="url(#filter1_d_674_12114)">
<path d="M19.355 26.208C18.6097 26.208 17.8903 26.0953 17.197 25.87C16.5123 25.6447 15.9187 25.3283 15.416 24.921L16.521 23.374C17.327 24.0067 18.2673 24.323 19.342 24.323C19.8793 24.323 20.304 24.232 20.616 24.05C20.9367 23.868 21.097 23.621 21.097 23.309C21.097 23.0143 20.9497 22.7847 20.655 22.62C20.3603 22.4553 19.8923 22.3383 19.251 22.269C18.0117 22.1303 17.1017 21.84 16.521 21.398C15.949 20.956 15.663 20.3233 15.663 19.5C15.663 18.9453 15.819 18.4557 16.131 18.031C16.443 17.6063 16.8807 17.277 17.444 17.043C18.0073 16.809 18.6573 16.692 19.394 16.692C20.0267 16.692 20.642 16.783 21.24 16.965C21.8467 17.147 22.3797 17.4027 22.839 17.732L21.838 19.227C21.1273 18.733 20.343 18.486 19.485 18.486C18.9563 18.486 18.5317 18.5727 18.211 18.746C17.899 18.9193 17.743 19.1533 17.743 19.448C17.743 19.734 17.8773 19.955 18.146 20.111C18.4233 20.267 18.8827 20.384 19.524 20.462C20.7547 20.6007 21.6733 20.9083 22.28 21.385C22.8867 21.853 23.19 22.4987 23.19 23.322C23.19 23.894 23.0297 24.401 22.709 24.843C22.3883 25.2763 21.9377 25.6143 21.357 25.857C20.7763 26.091 20.109 26.208 19.355 26.208ZM26.5573 16.9H28.6893V26H26.5573V16.9ZM40.8733 20.618V24.674C40.414 25.168 39.8463 25.5493 39.1703 25.818C38.503 26.078 37.7663 26.208 36.9603 26.208C35.9983 26.208 35.1533 26.013 34.4253 25.623C33.706 25.233 33.147 24.6783 32.7483 23.959C32.3583 23.2397 32.1633 22.4033 32.1633 21.45C32.1633 20.5227 32.3713 19.6993 32.7873 18.98C33.2033 18.252 33.784 17.6887 34.5293 17.29C35.2833 16.8827 36.1456 16.679 37.1163 16.679C37.8183 16.679 38.451 16.8003 39.0143 17.043C39.5863 17.2857 40.1106 17.654 40.5873 18.148L39.3003 19.422C39.0143 19.136 38.6763 18.915 38.2863 18.759C37.905 18.603 37.5106 18.525 37.1033 18.525C36.228 18.525 35.5346 18.7893 35.0233 19.318C34.5206 19.838 34.2693 20.5487 34.2693 21.45C34.2693 22.0307 34.382 22.542 34.6073 22.984C34.8326 23.426 35.1533 23.7683 35.5693 24.011C35.9853 24.2537 36.4663 24.375 37.0123 24.375C37.8703 24.375 38.555 24.154 39.0663 23.712V22.321H36.5963V20.618H40.8733ZM51.3521 26L50.6761 24.362H46.1911L45.5151 26H43.2401L47.3221 16.9H49.5971L53.6531 26H51.3521ZM48.4531 18.941L46.9581 22.529H49.9221L48.4531 18.941ZM60.9065 16.9C61.6085 16.9 62.2195 17.0343 62.7395 17.303C63.2681 17.563 63.6755 17.94 63.9615 18.434C64.2475 18.928 64.3905 19.5043 64.3905 20.163C64.3905 20.8217 64.2475 21.398 63.9615 21.892C63.6755 22.386 63.2681 22.7673 62.7395 23.036C62.2195 23.296 61.6085 23.426 60.9065 23.426H58.6835V26H56.5515V16.9H60.9065ZM60.8025 21.567C61.2531 21.567 61.6085 21.4413 61.8685 21.19C62.1371 20.9387 62.2715 20.6007 62.2715 20.176C62.2715 19.7513 62.1371 19.4133 61.8685 19.162C61.6085 18.9107 61.2531 18.785 60.8025 18.785H58.6705V21.567H60.8025ZM76.6877 16.9C77.3897 16.9 78.0007 17.0343 78.5207 17.303C79.0494 17.563 79.4567 17.94 79.7427 18.434C80.0287 18.928 80.1717 19.5043 80.1717 20.163C80.1717 20.8217 80.0287 21.398 79.7427 21.892C79.4567 22.386 79.0494 22.7673 78.5207 23.036C78.0007 23.296 77.3897 23.426 76.6877 23.426H74.4647V26H72.3327V16.9H76.6877ZM76.5837 21.567C77.0344 21.567 77.3897 21.4413 77.6497 21.19C77.9184 20.9387 78.0527 20.6007 78.0527 20.176C78.0527 19.7513 77.9184 19.4133 77.6497 19.162C77.3897 18.9107 77.0344 18.785 76.5837 18.785H74.4517V21.567H76.5837ZM89.4159 16.9H91.5349V26H89.6239L85.5029 20.371L85.5289 22.828V26H83.4099V16.9H85.3209L89.4419 22.555L89.4159 20.124V16.9ZM102.886 16.9V22.139C102.886 22.9623 102.717 23.6773 102.379 24.284C102.05 24.8907 101.578 25.3587 100.962 25.688C100.347 26.0173 99.632 26.182 98.8173 26.182C97.552 26.182 96.564 25.831 95.8533 25.129C95.1513 24.427 94.796 23.4347 94.7873 22.152H96.8673C96.876 22.8367 97.0493 23.3653 97.3873 23.738C97.7253 24.102 98.202 24.284 98.8173 24.284C99.424 24.284 99.8963 24.0977 100.234 23.725C100.581 23.3437 100.754 22.8063 100.754 22.113V18.746H98.1023V16.9H102.886Z" fill="#20C4D9"/>
</g>
<defs>
<filter id="filter0_d_674_12114" x="0" y="0" width="142.5" height="44" filterUnits="userSpaceOnUse" color-interpolation-filters="sRGB">
<feFlood flood-opacity="0" result="BackgroundImageFix"/>
<feColorMatrix in="SourceAlpha" type="matrix" values="0 0 0 0 0 0 0 0 0 0 0 0 0 0 0 0 0 0 127 0" result="hardAlpha"/>
<feOffset dy="2"/>
<feGaussianBlur stdDeviation="3"/>
<feComposite in2="hardAlpha" operator="out"/>
<feColorMatrix type="matrix" values="0 0 0 0 0 0 0 0 0 0.729412 0 0 0 0 0.819608 0 0 0 0.3 0"/>
<feBlend mode="normal" in2="BackgroundImageFix" result="effect1_dropShadow_674_12114"/>
<feBlend mode="normal" in="SourceGraphic" in2="effect1_dropShadow_674_12114" result="shape"/>
</filter>
<filter id="filter1_d_674_12114" x="9.41602" y="12.6797" width="99.4703" height="21.5273" filterUnits="userSpaceOnUse" color-interpolation-filters="sRGB">
<feFlood flood-opacity="0" result="BackgroundImageFix"/>
<feColorMatrix in="SourceAlpha" type="matrix" values="0 0 0 0 0 0 0 0 0 0 0 0 0 0 0 0 0 0 127 0" result="hardAlpha"/>
<feOffset dy="2"/>
<feGaussianBlur stdDeviation="3"/>
<feComposite in2="hardAlpha" operator="out"/>
<feColorMatrix type="matrix" values="0 0 0 0 0 0 0 0 0 0.729412 0 0 0 0 0.819608 0 0 0 0.3 0"/>
<feBlend mode="normal" in2="BackgroundImageFix" result="effect1_dropShadow_674_12114"/>
<feBlend mode="normal" in="SourceGraphic" in2="effect1_dropShadow_674_12114" result="shape"/>
</filter>
<linearGradient id="paint0_linear_674_12114" x1="104.5" y1="41.8896" x2="138.3" y2="-5.29948" gradientUnits="userSpaceOnUse">
<stop stop-color="#00BAD1"/>
<stop offset="1" stop-color="#C2F8FF"/>
</linearGradient>
</defs>
</svg>
