<svg width="128" height="50" viewBox="0 0 128 50" fill="none" xmlns="http://www.w3.org/2000/svg">
<g filter="url(#filter0_d_627_27285)">
<path d="M30.6327 42H6C7.13496 33.7262 12.2212 33.3423 13.0199 33.3423H30.0022C30.885 33.3423 32.2301 32.404 32.2301 30.4848C32.2301 28.5657 30.6327 27.5847 30.0022 27.5847H19.4093C16.8872 27.5847 8.64823 25.2391 8.64823 15.9416C8.64823 6.64422 17.1394 4 18.6106 4H36.5177C36.882 4.01422 38.8885 4.03412 44 4C41.9823 12.4871 38.2832 12.6577 37.7367 12.6577H19.4093C18.4425 12.6577 16.9292 14.0224 16.9292 15.6857C16.9292 17.349 18.6106 18.6285 19.4093 18.6285H30.0022C31.4314 18.6285 40.6792 20.8036 40.6792 30.1437C40.6792 39.4837 31.7257 42 30.6327 42Z" fill="url(#paint0_linear_627_27285)"/>
</g>
<path d="M63.37 31.352C62.1087 31.352 60.8913 31.1613 59.718 30.78C58.5593 30.3987 57.5547 29.8633 56.704 29.174L58.574 26.556C59.938 27.6267 61.5293 28.162 63.348 28.162C64.2573 28.162 64.976 28.008 65.504 27.7C66.0467 27.392 66.318 26.974 66.318 26.446C66.318 25.9473 66.0687 25.5587 65.57 25.28C65.0713 25.0013 64.2793 24.8033 63.194 24.686C61.0967 24.4513 59.5567 23.96 58.574 23.212C57.606 22.464 57.122 21.3933 57.122 20C57.122 19.0613 57.386 18.2327 57.914 17.514C58.442 16.7953 59.1827 16.238 60.136 15.842C61.0893 15.446 62.1893 15.248 63.436 15.248C64.5067 15.248 65.548 15.402 66.56 15.71C67.5867 16.018 68.4887 16.4507 69.266 17.008L67.572 19.538C66.3693 18.702 65.042 18.284 63.59 18.284C62.6953 18.284 61.9767 18.4307 61.434 18.724C60.906 19.0173 60.642 19.4133 60.642 19.912C60.642 20.396 60.8693 20.77 61.324 21.034C61.7933 21.298 62.5707 21.496 63.656 21.628C65.7387 21.8627 67.2933 22.3833 68.32 23.19C69.3467 23.982 69.86 25.0747 69.86 26.468C69.86 27.436 69.5887 28.294 69.046 29.042C68.5033 29.7753 67.7407 30.3473 66.758 30.758C65.7753 31.154 64.646 31.352 63.37 31.352ZM72.424 15.6H76.032V31H72.424V15.6ZM93.5164 21.892V28.756C92.739 29.592 91.7784 30.2373 90.6344 30.692C89.505 31.132 88.2584 31.352 86.8944 31.352C85.2664 31.352 83.8364 31.022 82.6044 30.362C81.387 29.702 80.441 28.7633 79.7664 27.546C79.1064 26.3287 78.7764 24.9133 78.7764 23.3C78.7764 21.7307 79.1284 20.3373 79.8324 19.12C80.5364 17.888 81.519 16.9347 82.7804 16.26C84.0564 15.5707 85.5157 15.226 87.1584 15.226C88.3464 15.226 89.417 15.4313 90.3704 15.842C91.3384 16.2527 92.2257 16.876 93.0324 17.712L90.8544 19.868C90.3704 19.384 89.7984 19.01 89.1384 18.746C88.493 18.482 87.8257 18.35 87.1364 18.35C85.655 18.35 84.4817 18.7973 83.6164 19.692C82.7657 20.572 82.3404 21.7747 82.3404 23.3C82.3404 24.2827 82.531 25.148 82.9124 25.896C83.2937 26.644 83.8364 27.2233 84.5404 27.634C85.2444 28.0447 86.0584 28.25 86.9824 28.25C88.4344 28.25 89.593 27.876 90.4584 27.128V24.774H86.2784V21.892H93.5164ZM108.115 31L106.971 28.228H99.381L98.237 31H94.387L101.295 15.6H105.145L112.009 31H108.115ZM103.209 19.054L100.679 25.126H105.695L103.209 19.054ZM121.149 15.6C122.337 15.6 123.371 15.8273 124.251 16.282C125.146 16.722 125.835 17.36 126.319 18.196C126.803 19.032 127.045 20.0073 127.045 21.122C127.045 22.2367 126.803 23.212 126.319 24.048C125.835 24.884 125.146 25.5293 124.251 25.984C123.371 26.424 122.337 26.644 121.149 26.644H117.387V31H113.779V15.6H121.149ZM120.973 23.498C121.736 23.498 122.337 23.2853 122.777 22.86C123.232 22.4347 123.459 21.8627 123.459 21.144C123.459 20.4253 123.232 19.8533 122.777 19.428C122.337 19.0027 121.736 18.79 120.973 18.79H117.365V23.498H120.973Z" fill="#00D0FF" fill-opacity="0.9"/>
<defs>
<filter id="filter0_d_627_27285" x="0" y="0" width="50" height="50" filterUnits="userSpaceOnUse" color-interpolation-filters="sRGB">
<feFlood flood-opacity="0" result="BackgroundImageFix"/>
<feColorMatrix in="SourceAlpha" type="matrix" values="0 0 0 0 0 0 0 0 0 0 0 0 0 0 0 0 0 0 127 0" result="hardAlpha"/>
<feOffset dy="2"/>
<feGaussianBlur stdDeviation="3"/>
<feComposite in2="hardAlpha" operator="out"/>
<feColorMatrix type="matrix" values="0 0 0 0 0 0 0 0 0 0.729412 0 0 0 0 0.819608 0 0 0 0.3 0"/>
<feBlend mode="normal" in2="BackgroundImageFix" result="effect1_dropShadow_627_27285"/>
<feBlend mode="normal" in="SourceGraphic" in2="effect1_dropShadow_627_27285" result="shape"/>
</filter>
<linearGradient id="paint0_linear_627_27285" x1="6" y1="48.9939" x2="46.1378" y2="-7.04315" gradientUnits="userSpaceOnUse">
<stop stop-color="#00BAD1"/>
<stop offset="1" stop-color="#C2F8FF"/>
</linearGradient>
</defs>
</svg>
