<svg width="38" height="38" viewBox="0 0 38 38" fill="none" xmlns="http://www.w3.org/2000/svg">
<path d="M24.6327 38H0C1.13496 29.7262 6.22124 29.3423 7.01991 29.3423H24.0022C24.885 29.3423 26.2301 28.404 26.2301 26.4848C26.2301 24.5657 24.6327 23.5847 24.0022 23.5847H13.4093C10.8872 23.5847 2.64823 21.2391 2.64823 11.9416C2.64823 2.64422 11.1394 0 12.6106 0H30.5177C30.882 0.0142162 32.8885 0.034119 38 0C35.9823 8.48709 32.2832 8.65769 31.7367 8.65769H13.4093C12.4425 8.65769 10.9292 10.0224 10.9292 11.6857C10.9292 13.349 12.6106 14.6285 13.4093 14.6285H24.0022C25.4314 14.6285 34.6792 16.8036 34.6792 26.1437C34.6792 35.4837 25.7257 38 24.6327 38Z" fill="white"/>
</svg>
