<svg width="64" height="64" viewBox="0 0 64 64" fill="none" xmlns="http://www.w3.org/2000/svg">
<path opacity="0.2" d="M52.575 8.975L5.97499 22.1C5.57831 22.2085 5.2247 22.4366 4.96234 22.7532C4.69997 23.0699 4.54161 23.4598 4.50881 23.8697C4.47602 24.2796 4.57039 24.6897 4.77907 25.0441C4.98775 25.3984 5.3006 25.6799 5.67499 25.85L27.075 35.975C27.4942 36.1691 27.8309 36.5058 28.025 36.925L38.15 58.325C38.3201 58.6994 38.6016 59.0122 38.9559 59.2209C39.3103 59.4296 39.7204 59.524 40.1303 59.4912C40.5402 59.4584 40.9301 59.3 41.2468 59.0377C41.5634 58.7753 41.7915 58.4217 41.9 58.025L55.025 11.425C55.1245 11.0849 55.1306 10.7244 55.0428 10.3811C54.955 10.0379 54.7765 9.72458 54.5259 9.47405C54.2754 9.22352 53.9621 9.045 53.6189 8.95719C53.2756 8.86939 52.915 8.87554 52.575 8.975V8.975Z" fill="#33C8DA"/>
<path d="M52.2944 8.01508C52.8066 7.86533 53.3497 7.85647 53.8667 7.98871C54.3836 8.12095 54.8556 8.38977 55.2329 8.76703C55.6101 9.14426 55.8789 9.61646 56.0112 10.1332C56.1425 10.6468 56.1338 11.1866 55.9868 11.6957L42.8638 58.2885C42.701 58.8834 42.3592 59.4146 41.8843 59.808C41.4094 60.2013 40.825 60.4395 40.2104 60.4887C39.5958 60.5379 38.9801 60.3962 38.4487 60.0834C37.9216 59.773 37.5024 59.3078 37.2466 58.7524L37.2456 58.7534L27.1206 37.353L27.1177 37.3452C27.0231 37.1412 26.8588 36.9778 26.6548 36.8832L26.647 36.8793L5.26123 26.7602C4.69993 26.5051 4.23046 26.0834 3.91748 25.5522C3.60454 25.0208 3.46313 24.4052 3.51221 23.7905C3.56138 23.1758 3.79857 22.5906 4.19189 22.1157C4.58371 21.6427 5.11177 21.3017 5.70361 21.1381L52.2944 8.01605V8.01508ZM52.8462 9.93793L6.24658 23.0629L6.23877 23.0649C6.04047 23.1191 5.86309 23.2337 5.73193 23.392C5.60114 23.5502 5.52177 23.745 5.50537 23.9496C5.48906 24.1544 5.5369 24.3595 5.64111 24.5366C5.7454 24.7135 5.9014 24.8548 6.08838 24.9399C6.09302 24.942 6.09843 24.9445 6.10303 24.9467L27.4946 35.0678C27.4996 35.0701 27.5043 35.0733 27.5093 35.0756L38.3179 24.268C38.7084 23.8775 39.3414 23.8776 39.7319 24.268C40.1224 24.6585 40.1224 25.2916 39.7319 25.6821L28.9233 36.4897C28.9246 36.4924 28.927 36.4948 28.9282 36.4975H28.9292L39.0542 57.8979L39.0601 57.9116C39.1451 58.0986 39.2863 58.2555 39.4634 58.3598C39.6404 58.464 39.8455 58.5109 40.0503 58.4946C40.2552 58.4782 40.4506 58.3991 40.6089 58.268C40.7671 58.1369 40.8808 57.9594 40.9351 57.7612L40.937 57.7543L54.062 11.1547L54.0649 11.145C54.114 10.9772 54.117 10.7987 54.0737 10.6293C54.0304 10.46 53.9424 10.3047 53.8188 10.1811C53.6952 10.0575 53.5399 9.96954 53.3706 9.92621C53.2014 9.883 53.0236 9.88601 52.856 9.935L52.5747 8.97504L52.8462 9.93793Z" fill="#33C8DA"/>
</svg>
